<?xml version="1.0" encoding="UTF-8" standalone="no"?>
<svg width="20px" height="24px" viewBox="0 0 20 24" version="1.1" xmlns="http://www.w3.org/2000/svg" xmlns:xlink="http://www.w3.org/1999/xlink">
    <!-- Generator: Sketch 41.2 (35397) - http://www.bohemiancoding.com/sketch -->
    <title>doc</title>
    <desc>Created with Sketch.</desc>
    <defs></defs>
    <g id="Page-1" stroke="none" stroke-width="1" fill="none" fill-rule="evenodd">
        <g id="doc" transform="translate(-2.000000, 0.000000)">
            <g id="Group">
                <g id="Outline_Icons" transform="translate(2.000000, 0.000000)" stroke="#000000">
                    <g id="Group">
                        <g id="Shape">
                            <polygon points="19.5 23.5 0.5 23.5 0.5 0.5 13.5 0.5 19.5 6.5"></polygon>
                            <polyline points="13.5 0.5 13.5 6.5 19.5 6.5"></polyline>
                        </g>
                        <path d="M16.207,14.738 C16.047,13.995 15.686,13.499 14.91,13.499 C13.709,13.499 13.5,14.535 13.5,16 C13.5,17.464 13.709,18.5 14.91,18.5 C15.685,18.5 16.047,18.004 16.207,17.259" id="Shape"></path>
                        <path d="M11.5,16 C11.5,17.462 11.248,18.5 10,18.5 C8.751,18.5 8.5,17.462 8.5,16 C8.5,14.535 8.751,13.5 10,13.5 C11.248,13.5 11.5,14.535 11.5,16 Z" id="Shape"></path>
                        <path d="M3.5,18.5 L3.5,13.5 L4.5,13.5 C5.652,13.5 6.5,14.568 6.5,16 C6.5,17.432 5.652,18.5 4.5,18.5 L3.5,18.5 Z" id="Shape"></path>
                    </g>
                </g>
                <g id="Invisible_Shape">
                    <rect id="Rectangle-path" x="0" y="0" width="24" height="24"></rect>
                </g>
            </g>
        </g>
    </g>
</svg>