<?xml version="1.0" encoding="UTF-8" standalone="no"?>
<svg width="20px" height="24px" viewBox="0 0 20 24" version="1.1" xmlns="http://www.w3.org/2000/svg" xmlns:xlink="http://www.w3.org/1999/xlink">
    <!-- Generator: Sketch 41.2 (35397) - http://www.bohemiancoding.com/sketch -->
    <title>document</title>
    <desc>Created with Sketch.</desc>
    <defs></defs>
    <g id="Page-1" stroke="none" stroke-width="1" fill="none" fill-rule="evenodd">
        <g id="document" transform="translate(-2.000000, 0.000000)">
            <g id="Group">
                <g id="Outline_Icons" transform="translate(2.000000, 0.000000)" stroke="#000000">
                    <g id="Group">
                        <g id="Shape">
                            <polygon points="19.5 23.5 0.5 23.5 0.5 0.5 13.5 0.5 19.5 6.5"></polygon>
                            <polyline points="13.5 0.5 13.5 6.5 19.5 6.5"></polyline>
                        </g>
                        <path d="M5.5,7.5 L10,7.5" id="Shape"></path>
                        <path d="M5.5,10.5 L14.5,10.5" id="Shape"></path>
                        <path d="M5.5,13.5 L8.5,13.5" id="Shape"></path>
                        <path d="M5.5,16.5 L8.5,16.5" id="Shape"></path>
                        <path d="M5.5,19.5 L8.5,19.5" id="Shape"></path>
                        <g transform="translate(10.000000, 13.000000)" id="Shape">
                            <polyline points="0.5 1.5 0.5 0.5 4.5 0.5 4.5 1.5"></polyline>
                            <path d="M2.5,0.5 L2.5,6.5"></path>
                            <path d="M1,6.5 L4,6.5"></path>
                        </g>
                    </g>
                </g>
                <g id="Invisible_Shape">
                    <rect id="Rectangle-path" x="0" y="0" width="24" height="24"></rect>
                </g>
            </g>
        </g>
    </g>
</svg>