<?xml version="1.0" encoding="UTF-8" standalone="no"?>
<svg width="20px" height="24px" viewBox="0 0 20 24" version="1.1" xmlns="http://www.w3.org/2000/svg" xmlns:xlink="http://www.w3.org/1999/xlink">
    <!-- Generator: Sketch 41.2 (35397) - http://www.bohemiancoding.com/sketch -->
    <title>eps</title>
    <desc>Created with Sketch.</desc>
    <defs></defs>
    <g id="Page-1" stroke="none" stroke-width="1" fill="none" fill-rule="evenodd">
        <g id="eps">
            <g id="Group">
                <g id="Outline_Icons" stroke="#000000">
                    <g id="Group">
                        <path d="M13.26,17.258 C13.301,17.951 13.84,18.5 14.5,18.5 C15.186,18.5 15.74,17.906 15.74,17.173 C15.74,16.093 14.716,16.061 14.499,16 C14.282,15.936 13.258,15.904 13.258,14.825 C13.258,14.093 13.815,13.5 14.5,13.5 C15.158,13.5 15.697,14.048 15.738,14.741" id="Shape"></path>
                        <g transform="translate(3.000000, 13.000000)" id="Shape">
                            <polyline points="3 5.5 0.5 5.5 0.5 0.5 3 0.5"></polyline>
                            <path d="M0.5,2.5 L2,2.5"></path>
                        </g>
                        <g id="Shape">
                            <polygon points="19.5 23.5 0.5 23.5 0.5 0.5 13.5 0.5 19.5 6.5"></polygon>
                            <polyline points="13.5 0.5 13.5 6.5 19.5 6.5"></polyline>
                        </g>
                        <path d="M8.5,18.5 L8.5,13.5 L9.75,13.5 C10.44,13.5 11,14.06 11,14.75 C11,15.44 10.44,16 9.75,16 L8.5,16" id="Shape"></path>
                    </g>
                </g>
                <g id="Invisible_Shape">
                    <rect id="Rectangle-path" x="0" y="0" width="24" height="24"></rect>
                </g>
            </g>
        </g>
    </g>
</svg>