<?xml version="1.0" encoding="UTF-8" standalone="no"?>
<svg width="20px" height="24px" viewBox="0 0 20 24" version="1.1" xmlns="http://www.w3.org/2000/svg" xmlns:xlink="http://www.w3.org/1999/xlink">
    <!-- Generator: Sketch 41.2 (35397) - http://www.bohemiancoding.com/sketch -->
    <title>excel</title>
    <desc>Created with Sketch.</desc>
    <defs></defs>
    <g id="Page-1" stroke="none" stroke-width="1" fill="none" fill-rule="evenodd">
        <g id="excel" transform="translate(-2.000000, 0.000000)">
            <g id="Group">
                <g id="Outline_Icons" transform="translate(2.000000, 0.000000)" stroke="#000000">
                    <g id="Group">
                        <g id="Shape">
                            <polygon points="19.5 23.5 0.5 23.5 0.5 0.5 13.5 0.5 19.5 6.5"></polygon>
                            <polyline points="13.5 0.5 13.5 6.5 19.5 6.5"></polyline>
                        </g>
                        <polyline id="Shape" points="12 18.5 9.5 18.5 9.5 13.5"></polyline>
                        <path d="M14.26,17.258 C14.301,17.951 14.84,18.5 15.5,18.5 C16.186,18.5 16.74,17.906 16.74,17.173 C16.74,16.093 15.716,16.062 15.499,16 C15.282,15.936 14.258,15.904 14.258,14.824 C14.258,14.093 14.815,13.5 15.5,13.5 C16.158,13.5 16.697,14.049 16.738,14.74" id="Shape"></path>
                        <g transform="translate(3.000000, 13.000000)" id="Shape">
                            <path d="M0.5,0.5 L3.5,5.5"></path>
                            <path d="M3.5,0.5 L0.5,5.5"></path>
                        </g>
                    </g>
                </g>
                <g id="Invisible_Shape">
                    <rect id="Rectangle-path" x="0" y="0" width="24" height="24"></rect>
                </g>
            </g>
        </g>
    </g>
</svg>