<?xml version="1.0" encoding="UTF-8" standalone="no"?>
<svg width="20px" height="24px" viewBox="0 0 20 24" version="1.1" xmlns="http://www.w3.org/2000/svg" xmlns:xlink="http://www.w3.org/1999/xlink">
    <!-- Generator: Sketch 41.2 (35397) - http://www.bohemiancoding.com/sketch -->
    <title>gif</title>
    <desc>Created with Sketch.</desc>
    <defs></defs>
    <g id="Page-1" stroke="none" stroke-width="1" fill="none" fill-rule="evenodd">
        <g id="gif">
            <g id="Group">
                <g id="Outline_Icons" stroke="#000000">
                    <g id="Group">
                        <g transform="translate(13.000000, 13.000000)" id="Shape">
                            <polyline points="0.5 5.5 0.5 0.5 2.5 0.5"></polyline>
                            <path d="M0.5,2.5 L2,2.5"></path>
                        </g>
                        <path d="M7.359,14.5 C7.191,13.754 6.812,13.5 6,13.5 C4.742,13.5 4.5,14.535 4.5,16 C4.5,17.462 4.742,18.5 6,18.5 C7.048,18.5 7.42,17.622 7.5,16.5 L6,16.5" id="Shape"></path>
                        <path d="M10.5,18.5 L10.5,13.5" id="Shape"></path>
                        <g id="Shape">
                            <polygon points="19.5 23.5 0.5 23.5 0.5 0.5 13.5 0.5 19.5 6.5"></polygon>
                            <polyline points="13.5 0.5 13.5 6.5 19.5 6.5"></polyline>
                        </g>
                    </g>
                </g>
                <g id="Invisible_Shape">
                    <rect id="Rectangle-path" x="0" y="0" width="24" height="24"></rect>
                </g>
            </g>
        </g>
    </g>
</svg>