<?xml version="1.0" encoding="UTF-8" standalone="no"?>
<svg width="20px" height="24px" viewBox="0 0 20 24" version="1.1" xmlns="http://www.w3.org/2000/svg" xmlns:xlink="http://www.w3.org/1999/xlink">
    <!-- Generator: Sketch 41.2 (35397) - http://www.bohemiancoding.com/sketch -->
    <title>mp4</title>
    <desc>Created with Sketch.</desc>
    <defs></defs>
    <g id="Page-1" stroke="none" stroke-width="1" fill="none" fill-rule="evenodd">
        <g id="mp4" transform="translate(-2.000000, 0.000000)">
            <g id="Group">
                <g id="Outline_Icons" transform="translate(2.000000, 0.000000)" stroke="#000000">
                    <g id="Group">
                        <polyline id="Shape" points="7.5 18.502 7.5 13.5 5.5 16.001 3.5 13.5 3.5 18.502"></polyline>
                        <polyline id="Shape" points="15.5 18.5 15.5 13.5 13.5 16.5 16.5 16.5"></polyline>
                        <g id="Shape">
                            <polygon points="19.5 23.5 0.5 23.5 0.5 0.5 13.5 0.5 19.5 6.5"></polygon>
                            <polyline points="13.5 0.5 13.5 6.5 19.5 6.5"></polyline>
                        </g>
                        <path d="M9.5,18.5 L9.5,13.5 L10.75,13.5 C11.44,13.5 12,14.06 12,14.75 C12,15.44 11.44,16 10.75,16 L9.5,16" id="Shape"></path>
                    </g>
                </g>
                <g id="Invisible_Shape">
                    <rect id="Rectangle-path" x="0" y="0" width="24" height="24"></rect>
                </g>
            </g>
        </g>
    </g>
</svg>