<?xml version="1.0" encoding="UTF-8" standalone="no"?>
<svg width="20px" height="24px" viewBox="0 0 20 24" version="1.1" xmlns="http://www.w3.org/2000/svg" xmlns:xlink="http://www.w3.org/1999/xlink">
    <!-- Generator: Sketch 41.2 (35397) - http://www.bohemiancoding.com/sketch -->
    <title>pdf</title>
    <desc>Created with Sketch.</desc>
    <defs></defs>
    <g id="Page-1" stroke="none" stroke-width="1" fill="none" fill-rule="evenodd">
        <g id="pdf" transform="translate(-2.000000, 0.000000)">
            <g id="Group">
                <g id="Outline_Icons" transform="translate(2.000000, 0.000000)" stroke="#000000">
                    <polyline id="Shape" points="13.5 0.5 13.5 6.5 19.5 6.5"></polyline>
                    <g id="Group">
                        <polygon id="Shape" points="19.5 23.5 0.5 23.5 0.5 0.5 13.5 0.5 19.5 6.5"></polygon>
                        <path d="M9.5,18.5 L9.5,13.5 L10.5,13.5 C11.652,13.5 12.5,14.568 12.5,16 C12.5,17.432 11.652,18.5 10.5,18.5 L9.5,18.5 Z" id="Shape"></path>
                        <polyline id="Shape" points="14.5 18.5 14.5 13.5 17 13.5"></polyline>
                        <path d="M14.5,15.5 L16,15.5" id="Shape"></path>
                        <path d="M4.5,18.499 L4.5,13.5 L5.75,13.5 C6.44,13.5 7,14.059 7,14.75 C7,15.439 6.44,16 5.75,16 L4.5,16" id="Shape"></path>
                    </g>
                </g>
                <g id="Invisible_Shape">
                    <rect id="Rectangle-path" x="0" y="0" width="24" height="24"></rect>
                </g>
            </g>
        </g>
    </g>
</svg>