<?xml version="1.0" encoding="UTF-8" standalone="no"?>
<svg width="20px" height="24px" viewBox="0 0 20 24" version="1.1" xmlns="http://www.w3.org/2000/svg" xmlns:xlink="http://www.w3.org/1999/xlink">
    <!-- Generator: Sketch 41.2 (35397) - http://www.bohemiancoding.com/sketch -->
    <title>powerpoint</title>
    <desc>Created with Sketch.</desc>
    <defs></defs>
    <g id="Page-1" stroke="none" stroke-width="1" fill="none" fill-rule="evenodd">
        <g id="powerpoint" transform="translate(-2.000000, 0.000000)">
            <g id="Group">
                <g id="Outline_Icons" transform="translate(2.000000, 0.000000)" stroke="#000000">
                    <polyline id="Shape" points="13.5 0.5 13.5 6.5 19.5 6.5"></polyline>
                    <g id="Group">
                        <g transform="translate(14.000000, 13.000000)" id="Shape">
                            <path d="M1.5,5.5 L1.5,0.5"></path>
                            <path d="M0.5,0.5 L2.5,0.5"></path>
                        </g>
                        <polygon id="Shape" points="19.5 23.5 0.5 23.5 0.5 0.5 13.5 0.5 19.5 6.5"></polygon>
                        <path d="M4.5,18.499 L4.5,13.5 L5.75,13.5 C6.44,13.5 7,14.059 7,14.75 C7,15.439 6.44,16 5.75,16 L4.5,16" id="Shape"></path>
                        <path d="M9.5,18.499 L9.5,13.5 L10.75,13.5 C11.44,13.5 12,14.059 12,14.75 C12,15.439 11.44,16 10.75,16 L9.5,16" id="Shape"></path>
                    </g>
                </g>
                <g id="Invisible_Shape">
                    <rect id="Rectangle-path" x="0" y="0" width="24" height="24"></rect>
                </g>
            </g>
        </g>
    </g>
</svg>