<?xml version="1.0" encoding="UTF-8" standalone="no"?>
<svg width="20px" height="24px" viewBox="0 0 20 24" version="1.1" xmlns="http://www.w3.org/2000/svg" xmlns:xlink="http://www.w3.org/1999/xlink">
    <!-- Generator: Sketch 41.2 (35397) - http://www.bohemiancoding.com/sketch -->
    <title>svg</title>
    <desc>Created with Sketch.</desc>
    <defs></defs>
    <g id="Page-1" stroke="none" stroke-width="1" fill="none" fill-rule="evenodd">
        <g id="svg">
            <g id="Group">
                <g id="Outline_Icons" stroke="#000000">
                    <g id="Group">
                        <path d="M4.26,17.258 C4.301,17.951 4.84,18.5 5.5,18.5 C6.186,18.5 6.74,17.906 6.74,17.173 C6.74,16.093 5.716,16.061 5.499,16 C5.282,15.936 4.258,15.904 4.258,14.825 C4.258,14.093 4.815,13.5 5.5,13.5 C6.158,13.5 6.697,14.048 6.738,14.741" id="Shape"></path>
                        <path d="M16.359,14.5 C16.191,13.754 15.812,13.5 15,13.5 C13.742,13.5 13.5,14.535 13.5,16 C13.5,17.462 13.742,18.5 15,18.5 C16.048,18.5 16.42,17.622 16.5,16.5 L15,16.5" id="Shape"></path>
                        <polyline id="Shape" points="8.5 13.5 10 18.5 11.5 13.5"></polyline>
                        <g id="Shape">
                            <polygon points="19.5 23.5 0.5 23.5 0.5 0.5 13.5 0.5 19.5 6.5"></polygon>
                            <polyline points="13.5 0.5 13.5 6.5 19.5 6.5"></polyline>
                        </g>
                    </g>
                </g>
                <g id="Invisible_Shape">
                    <rect id="Rectangle-path" x="0" y="0" width="24" height="24"></rect>
                </g>
            </g>
        </g>
    </g>
</svg>