<?xml version="1.0" encoding="UTF-8" standalone="no"?>
<svg width="18px" height="24px" viewBox="0 0 18 24" version="1.1" xmlns="http://www.w3.org/2000/svg" xmlns:xlink="http://www.w3.org/1999/xlink">
    <!-- Generator: Sketch 41.2 (35397) - http://www.bohemiancoding.com/sketch -->
    <title>zipped</title>
    <desc>Created with Sketch.</desc>
    <defs></defs>
    <g id="Page-1" stroke="none" stroke-width="1" fill="none" fill-rule="evenodd">
        <g id="zipped" transform="translate(-3.000000, 0.000000)">
            <g id="Group">
                <g id="Outline_Icons" transform="translate(3.000000, 0.000000)" stroke="#000000">
                    <g id="Group">
                        <polygon id="Shape" points="17.5 23.5 0.5 23.5 0.5 0.5 13.5 0.5 17.5 4.5"></polygon>
                        <polyline id="Shape" points="8.5 0.5 8.5 2.501 9.5 2.501 9.5 7.501 6.5 7.501 6.5 2.5"></polyline>
                        <path d="M7.5,9.5 L8.5,9.5" id="Shape"></path>
                        <path d="M7.5,11.5 L8.5,11.5" id="Shape"></path>
                        <path d="M7.5,13.5 L8.5,13.5" id="Shape"></path>
                        <path d="M7.5,15.5 L8.5,15.5" id="Shape"></path>
                        <path d="M7.5,17.5 L8.5,17.5" id="Shape"></path>
                        <path d="M7.5,19.5 L8.5,19.5" id="Shape"></path>
                        <path d="M7.5,21.5 L8.5,21.5" id="Shape"></path>
                        <path d="M8.5,10.5 L9.5,10.5" id="Shape"></path>
                        <path d="M8.5,12.5 L9.5,12.5" id="Shape"></path>
                        <path d="M8.5,14.5 L9.5,14.5" id="Shape"></path>
                        <path d="M8.5,16.5 L9.5,16.5" id="Shape"></path>
                        <path d="M8.5,18.5 L9.5,18.5" id="Shape"></path>
                        <path d="M8.5,20.5 L9.5,20.5" id="Shape"></path>
                        <path d="M6.5,5.5 L8,5.5" id="Shape"></path>
                    </g>
                </g>
                <g id="Invisible_Shape">
                    <rect id="Rectangle-path" x="0" y="0" width="24" height="24"></rect>
                </g>
            </g>
        </g>
    </g>
</svg>